<svg id="visual" viewBox="0 0 3240 400" width="3240" height="400" xmlns="http://www.w3.org/2000/svg" xmlns:xlink="http://www.w3.org/1999/xlink" version="1.1"><path d="M0 87L38.5 93.3C77 99.7 154 112.3 231.2 113.8C308.3 115.3 385.7 105.7 462.8 118.2C540 130.7 617 165.3 694.2 168.2C771.3 171 848.7 142 925.8 129.8C1003 117.7 1080 122.3 1157.2 123.5C1234.3 124.7 1311.7 122.3 1388.8 127.7C1466 133 1543 146 1620 138.2C1697 130.3 1774 101.7 1851.2 99.7C1928.3 97.7 2005.7 122.3 2082.8 133.8C2160 145.3 2237 143.7 2314.2 131.7C2391.3 119.7 2468.7 97.3 2545.8 92.5C2623 87.7 2700 100.3 2777.2 102.7C2854.3 105 2931.7 97 3008.8 90.5C3086 84 3163 79 3201.5 76.5L3240 74L3240 401L3201.5 401C3163 401 3086 401 3008.8 401C2931.7 401 2854.3 401 2777.2 401C2700 401 2623 401 2545.8 401C2468.7 401 2391.3 401 2314.2 401C2237 401 2160 401 2082.8 401C2005.7 401 1928.3 401 1851.2 401C1774 401 1697 401 1620 401C1543 401 1466 401 1388.8 401C1311.7 401 1234.3 401 1157.2 401C1080 401 1003 401 925.8 401C848.7 401 771.3 401 694.2 401C617 401 540 401 462.8 401C385.7 401 308.3 401 231.2 401C154 401 77 401 38.5 401L0 401Z" fill="#005052"></path><path d="M0 251L38.5 250.3C77 249.7 154 248.3 231.2 251.5C308.3 254.7 385.7 262.3 462.8 255.5C540 248.7 617 227.3 694.2 211.5C771.3 195.7 848.7 185.3 925.8 179.2C1003 173 1080 171 1157.2 170C1234.3 169 1311.7 169 1388.8 182C1466 195 1543 221 1620 225.8C1697 230.7 1774 214.3 1851.2 207C1928.3 199.7 2005.7 201.3 2082.8 205C2160 208.7 2237 214.3 2314.2 219.8C2391.3 225.3 2468.7 230.7 2545.8 239.2C2623 247.7 2700 259.3 2777.2 264.2C2854.3 269 2931.7 267 3008.8 255.5C3086 244 3163 223 3201.5 212.5L3240 202L3240 401L3201.5 401C3163 401 3086 401 3008.8 401C2931.7 401 2854.3 401 2777.2 401C2700 401 2623 401 2545.8 401C2468.7 401 2391.3 401 2314.2 401C2237 401 2160 401 2082.8 401C2005.7 401 1928.3 401 1851.2 401C1774 401 1697 401 1620 401C1543 401 1466 401 1388.8 401C1311.7 401 1234.3 401 1157.2 401C1080 401 1003 401 925.8 401C848.7 401 771.3 401 694.2 401C617 401 540 401 462.8 401C385.7 401 308.3 401 231.2 401C154 401 77 401 38.5 401L0 401Z" fill="#007a7c"></path><path d="M0 318L38.5 313.3C77 308.7 154 299.3 231.2 297.2C308.3 295 385.7 300 462.8 309.8C540 319.7 617 334.3 694.2 333C771.3 331.7 848.7 314.3 925.8 308.7C1003 303 1080 309 1157.2 312.3C1234.3 315.7 1311.7 316.3 1388.8 314.7C1466 313 1543 309 1620 302C1697 295 1774 285 1851.2 283.3C1928.3 281.7 2005.7 288.3 2082.8 299C2160 309.7 2237 324.3 2314.2 327.5C2391.3 330.7 2468.7 322.3 2545.8 320.2C2623 318 2700 322 2777.2 318.8C2854.3 315.7 2931.7 305.3 3008.8 301.7C3086 298 3163 301 3201.5 302.5L3240 304L3240 401L3201.5 401C3163 401 3086 401 3008.8 401C2931.7 401 2854.3 401 2777.2 401C2700 401 2623 401 2545.8 401C2468.7 401 2391.3 401 2314.2 401C2237 401 2160 401 2082.8 401C2005.7 401 1928.3 401 1851.2 401C1774 401 1697 401 1620 401C1543 401 1466 401 1388.8 401C1311.7 401 1234.3 401 1157.2 401C1080 401 1003 401 925.8 401C848.7 401 771.3 401 694.2 401C617 401 540 401 462.8 401C385.7 401 308.3 401 231.2 401C154 401 77 401 38.5 401L0 401Z" fill="#00a7a9"></path></svg>