<svg id="visual" viewBox="0 0 3240 400" width="3240" height="400" xmlns="http://www.w3.org/2000/svg" xmlns:xlink="http://www.w3.org/1999/xlink" version="1.1"><path d="M0 295L38.5 280.3C77 265.7 154 236.3 231.2 232.2C308.3 228 385.7 249 462.8 267C540 285 617 300 694.2 303.5C771.3 307 848.7 299 925.8 288.3C1003 277.7 1080 264.3 1157.2 265.3C1234.3 266.3 1311.7 281.7 1388.8 284.2C1466 286.7 1543 276.3 1620 260C1697 243.7 1774 221.3 1851.2 229C1928.3 236.7 2005.7 274.3 2082.8 275.3C2160 276.3 2237 240.7 2314.2 227C2391.3 213.3 2468.7 221.7 2545.8 224.2C2623 226.7 2700 223.3 2777.2 239.2C2854.3 255 2931.7 290 3008.8 287.3C3086 284.7 3163 244.3 3201.5 224.2L3240 204L3240 0L3201.5 0C3163 0 3086 0 3008.8 0C2931.7 0 2854.3 0 2777.2 0C2700 0 2623 0 2545.8 0C2468.7 0 2391.3 0 2314.2 0C2237 0 2160 0 2082.8 0C2005.7 0 1928.3 0 1851.2 0C1774 0 1697 0 1620 0C1543 0 1466 0 1388.8 0C1311.7 0 1234.3 0 1157.2 0C1080 0 1003 0 925.8 0C848.7 0 771.3 0 694.2 0C617 0 540 0 462.8 0C385.7 0 308.3 0 231.2 0C154 0 77 0 38.5 0L0 0Z" fill="#005052"></path><path d="M0 172L38.5 178.7C77 185.3 154 198.7 231.2 200.3C308.3 202 385.7 192 462.8 180.8C540 169.7 617 157.3 694.2 154.3C771.3 151.3 848.7 157.7 925.8 161.5C1003 165.3 1080 166.7 1157.2 172.7C1234.3 178.7 1311.7 189.3 1388.8 199.2C1466 209 1543 218 1620 214.3C1697 210.7 1774 194.3 1851.2 188.7C1928.3 183 2005.7 188 2082.8 195.8C2160 203.7 2237 214.3 2314.2 209C2391.3 203.7 2468.7 182.3 2545.8 184.5C2623 186.7 2700 212.3 2777.2 222.7C2854.3 233 2931.7 228 3008.8 220.3C3086 212.7 3163 202.3 3201.5 197.2L3240 192L3240 0L3201.5 0C3163 0 3086 0 3008.8 0C2931.7 0 2854.3 0 2777.2 0C2700 0 2623 0 2545.8 0C2468.7 0 2391.3 0 2314.2 0C2237 0 2160 0 2082.8 0C2005.7 0 1928.3 0 1851.2 0C1774 0 1697 0 1620 0C1543 0 1466 0 1388.8 0C1311.7 0 1234.3 0 1157.2 0C1080 0 1003 0 925.8 0C848.7 0 771.3 0 694.2 0C617 0 540 0 462.8 0C385.7 0 308.3 0 231.2 0C154 0 77 0 38.5 0L0 0Z" fill="#007a7c"></path><path d="M0 78L38.5 74.5C77 71 154 64 231.2 63.3C308.3 62.7 385.7 68.3 462.8 78.5C540 88.7 617 103.3 694.2 113.2C771.3 123 848.7 128 925.8 128.2C1003 128.3 1080 123.7 1157.2 115.5C1234.3 107.3 1311.7 95.7 1388.8 88C1466 80.3 1543 76.7 1620 75.7C1697 74.7 1774 76.3 1851.2 75.2C1928.3 74 2005.7 70 2082.8 70.7C2160 71.3 2237 76.7 2314.2 86.5C2391.3 96.3 2468.7 110.7 2545.8 114.5C2623 118.3 2700 111.7 2777.2 108.3C2854.3 105 2931.7 105 3008.8 107.7C3086 110.3 3163 115.7 3201.5 118.3L3240 121L3240 0L3201.5 0C3163 0 3086 0 3008.8 0C2931.7 0 2854.3 0 2777.2 0C2700 0 2623 0 2545.8 0C2468.7 0 2391.3 0 2314.2 0C2237 0 2160 0 2082.8 0C2005.7 0 1928.3 0 1851.2 0C1774 0 1697 0 1620 0C1543 0 1466 0 1388.8 0C1311.7 0 1234.3 0 1157.2 0C1080 0 1003 0 925.8 0C848.7 0 771.3 0 694.2 0C617 0 540 0 462.8 0C385.7 0 308.3 0 231.2 0C154 0 77 0 38.5 0L0 0Z" fill="#00a7a9"></path></svg>